<?xml version="1.0" encoding="utf-8"?>
<!-- Generator: Adobe Illustrator 23.0.0, SVG Export Plug-In . SVG Version: 6.00 Build 0)  -->
<svg version="1.1" id="Layer_1" xmlns="http://www.w3.org/2000/svg" xmlns:xlink="http://www.w3.org/1999/xlink" x="0px" y="0px"
	 viewBox="0 0 326 100.92" style="enable-background:new 0 0 326 100.92;" xml:space="preserve">
<style type="text/css">
	.st0{fill:#F7B300;}
	.st1{fill:#FFFFFF;}
</style>
<g>
	<g>
		<g>
			<path class="st0" d="M186.7,37.39h14.4l-2.98,32.2h0.17l11.09-32.2h15.89l-2.32,32.2h0.17l10.43-32.2h14.4l-18.37,44.78h-16.89
				l1.99-31.7h-0.17l-11.09,31.7h-16.89L186.7,37.39z"/>
			<path class="st0" d="M259.29,62.3l-1.16,5.88c-1.08,4.8,0.83,6.04,2.73,6.04c2.73,0,4.55-1.66,5.88-7.78h13.41
				c-2.4,10.92-8.69,16.88-21.02,16.88c-10.68,0-15.48-3.64-15.48-12.66c0-2.98,0.41-6.62,1.32-10.84
				c3.48-17.13,10.51-23.59,23.92-23.59c12,0,16.8,5.3,13.49,21.52l-0.99,4.55H259.29z M269.63,52.2c0.99-4.72,0.5-6.87-2.73-6.87
				c-3.06,0-4.47,2.15-5.46,6.87l-0.41,1.99h8.2L269.63,52.2z"/>
			<path class="st0" d="M293.97,23.07h14.9l-4.06,19.37h0.17c2.57-4.64,6.46-6.21,10.68-6.21c6.46,0,10.35,2.98,10.35,11.84
				c0,2.9-0.41,6.46-1.32,10.76c-3.39,16.55-8.44,24.5-18.46,24.5c-5.3,0-7.95-2.32-8.69-7.28h-0.16l-1.24,6.13h-14.4L293.97,23.07z
				 M302.74,72.23c3.48,0,4.88-2.81,6.87-12.42c1.99-9.68,1.9-12.5-1.66-12.5c-3.39,0-4.72,2.81-6.7,12.5
				C299.27,69.42,299.35,72.23,302.74,72.23z"/>
		</g>
	</g>
	<g>
		<g>
			<g>
				<g>
					<path class="st1" d="M23.35,72.23c3.48,0,4.88-2.81,6.87-12.42c1.99-9.68,1.9-12.5-1.66-12.5c-3.39,0-4.72,2.81-6.7,12.5
						C19.87,69.42,19.95,72.23,23.35,72.23z"/>
				</g>
				<g>
					<path class="st1" d="M10.03,44.98c-1.5,1.14-2.89,2.45-4.14,3.94c-4.3,5.16-6.4,12.02-5.78,18.77c0.33,3.56,1.42,7,3.13,10.08
						L10.03,44.98z"/>
				</g>
				<g>
					<g>
						<path class="st1" d="M167.2,82.66c-9.11,0-12.25-1.49-10.26-11.42l4.97-23.84h-4.97l2.07-10.01h3.22
							c-3.9-6.41-11.15-9.94-19.04-10.16c-1.08-6.47-4.4-12.46-9.31-16.72c-1.77-1.61-3.77-2.91-5.98-3.95
							c-4.56-2.18-9.36-3.04-14.38-2.59c-2.38,0.31-4.7,0.84-6.94,1.62c-4.49,1.72-8.29,4.44-11.41,8.16
							c-0.12,0.14-0.23,0.3-0.35,0.45c-1.6-2.73-3.63-5.21-6.02-7.29c-1.82-1.62-3.91-2.97-6.21-4.1
							c-4.74-2.26-9.73-3.16-14.94-2.69c-2.41,0.3-4.81,0.78-7.21,1.68c-4.66,1.79-8.62,4.62-11.86,8.48
							c-3.31,3.98-5.48,8.83-6.34,13.93c-0.84-0.54-1.54-1.14-2.52-1.63c-2.43-1.14-4.98-1.59-7.65-1.35
							c-1.22,0.16-2.44,0.43-3.69,0.84c-0.73,0.28-1.42,0.6-2.08,0.98h3.18l-4.06,19.37h0.17c2.57-4.64,6.46-6.21,10.68-6.21
							c6.46,0,10.35,2.98,10.35,11.84c0,2.9-0.41,6.46-1.32,10.76c-3.39,16.55-8.44,24.5-18.46,24.5c-5.3,0-7.95-2.32-8.69-7.28
							h-0.17l-1.24,6.13H6.31c0.76,0.87,1.57,1.69,2.45,2.45c1.4,1.33,3.25,2.5,5.4,3.56c4.12,1.97,8.45,2.75,12.98,2.34
							c2.34-0.35,4.46-0.83,6.27-1.46c3.56-1.37,6.65-3.44,9.26-6.2c1.41,3.91,3.79,7.44,6.93,10.16c1.55,1.39,3.3,2.48,5.17,3.42
							c3.95,1.88,8.1,2.63,12.44,2.24c2.09-0.17,4.1-0.6,6.01-1.4c3.62-1.39,6.71-3.54,9.3-6.42c0.86,1.22,1.85,2.36,2.98,3.34
							c1.15,1.08,2.48,1.94,3.96,2.62c3.03,1.44,6.2,2.02,9.53,1.72c1.51-0.18,3.03-0.48,4.6-1.08c1.63-0.63,3.12-1.46,4.48-2.49
							c4.42,3.89,10.46,5.95,16.84,5.95c6.29,0,11.72-3.64,15.3-8.73c3.39,1.79,7.35,2.72,11.45,2.72c7.41,0,13.5-5.51,16.37-12.26
							C167.76,82.65,167.48,82.66,167.2,82.66z M82.2,82.16h-14.4l1.08-5.46h-0.16c-2.9,4.39-6.95,6.62-12.17,6.62
							c-6.54,0-11.17-2.57-9.19-12.17l6.33-30.37c0.41-1.98,2.16-3.4,4.18-3.4h11.43l-6.13,29.55c-0.91,3.72-0.16,5.3,2.48,5.3
							c2.65,0,3.89-1.57,4.8-5.3l5.42-26.15c0.41-1.98,2.16-3.4,4.18-3.4h11.42L82.2,82.16z M103.3,82.16H88.4l11.54-55.68
							c0.41-1.99,2.17-3.42,4.21-3.42h11.4L103.3,82.16z M146.59,82.16h-14.4l1.08-5.46h-0.17c-2.9,4.39-6.95,6.62-12.17,6.62
							c-6.54,0-11.18-2.57-9.19-12.17l6.32-30.35c0.41-1.99,2.17-3.42,4.2-3.42h11.41l-6.13,29.55c-0.91,3.72-0.17,5.3,2.48,5.3
							c2.65,0,3.89-1.57,4.8-5.3l5.42-26.13c0.41-1.99,2.17-3.42,4.21-3.42h11.4L146.59,82.16z"/>
					</g>
				</g>
			</g>
			<g>
				<path class="st1" d="M176.8,47.4h5.88l2.07-10.01h-5.88l2.73-13.16h-11.4c-2.04,0-3.79,1.43-4.2,3.42l-2.02,9.74h-1.74
					c1.55,2.55,2.58,5.56,2.9,9c0.38,4.16-0.65,8.58-2.72,12.44c4.01,3.13,6.79,7.77,7.34,13.76c0.31,3.33-0.33,6.84-1.71,10.06
					c2.34-0.03,4.85-0.19,7.44-0.48l1.99-9.93h-2.32c-2.4,0-3.39-0.91-2.81-3.48L176.8,47.4z"/>
			</g>
			<g>
				<g>
					<path class="st1" d="M16.19,41.55c1.17-0.27,2.34-0.55,3.51-0.82c-0.41-1.14-0.69-2.34-0.8-3.56
						c-0.37-3.89,0.87-7.85,3.4-10.83c1.15-1.34,2.49-2.43,3.99-3.28h-8.22c-2.04,0-3.79,1.43-4.21,3.42l-3.83,18.49
						C11.9,43.56,13.94,42.42,16.19,41.55z"/>
					<path class="st1" d="M3.23,77.77l-0.91,4.39h3.99C5.13,80.81,4.1,79.34,3.23,77.77z"/>
				</g>
			</g>
		</g>
	</g>
</g>
</svg>
